<svg width="1440" height="900" viewBox="0 0 1440 900" fill="none" xmlns="http://www.w3.org/2000/svg">
<g clip-path="url(#clip0_92_30)">
<rect width="1440" height="900" fill="#0F141F"/>
<g opacity="0.72">
<path d="M-84.6271 606.82L720.686 1073.31M720.686 1073.31L-84.6271 372.862M720.686 1073.31L1526 606.82M720.686 1073.31L1526 372.863M-84.0639 564.735L720.688 1073.31M-84.6271 514.095L720.686 1073.31M720.686 1073.31L-84.6271 451.324M720.686 1073.31L-84.6271 273.006M720.686 1073.31L-84.6271 138.907M720.686 1073.31L-84.627 -49.4025M720.686 1073.31L17.9907 -153.541M720.686 1073.31L727.378 -153.541M720.686 1073.31L1526 514.095M720.686 1073.31L1526 451.324M720.686 1073.31L1526 273.007M720.686 1073.31L1526 138.907M720.686 1073.31L1526 -49.4022M196.46 -153.541L720.688 1073.31M720.688 1073.31L373.799 -153.541M720.688 1073.31L890.227 -153.541M551.145 -153.541L720.685 1073.31M720.685 1073.31L1423.38 -153.541M720.685 1073.31L1244.92 -153.541M720.685 1073.31L1067.57 -153.541M1525.44 564.736L720.684 1073.31M-84.627 -3.7505L1521.54 -3.75026M-84.6271 114.654L1521.54 114.655M-84.6271 211.66L1521.54 211.66M-84.6271 288.697L1521.54 288.697M-84.6271 354.319L1521.54 354.319M-84.6271 408.532L1521.54 408.532M-84.6271 455.603L1521.54 455.603M-84.6271 496.976L1521.54 496.976M-84.6271 534.065L1521.54 534.065M-84.6271 565.45L1521.54 565.451M-84.6271 592.553L1521.54 592.554M-84.6271 618.232L1521.54 618.232" stroke="url(#paint0_radial_92_30)"/>
<path d="M1388.51 -94.3476L737.619 1052.53" stroke="url(#paint1_linear_92_30)"/>
<path d="M42.4891 -106.16L697.289 1037.07" stroke="url(#paint2_linear_92_30)" stroke-width="2.15"/>
</g>
<g opacity="0.8" filter="url(#filter0_f_92_30)">
<path d="M735.638 -1029.11C821.816 -862.475 929.542 -684.115 963.08 -485.167C986.729 -344.89 955.027 -205.487 877.635 -126.293C862.778 -111.09 842.924 -104.769 828.751 -88.6259C822.851 -81.9045 821.166 -68.9222 819.491 -59.1291C813.594 -24.6384 809.801 10.7887 804.148 45.3981C796.879 89.9179 789.782 134.935 769.494 170.004C749.388 204.764 733.472 240.812 721.336 283.181C702.96 347.339 701.175 417.731 703.206 488.472" fill="url(#paint3_linear_92_30)"/>
<path d="M735.638 -1029.11C821.816 -862.475 929.542 -684.115 963.08 -485.167C986.729 -344.89 955.027 -205.487 877.635 -126.293C862.778 -111.09 842.924 -104.769 828.751 -88.6259C822.851 -81.9045 821.166 -68.9222 819.491 -59.1291C813.594 -24.6384 809.801 10.7887 804.148 45.3981C796.879 89.9179 789.782 134.935 769.494 170.004C749.388 204.764 733.472 240.812 721.336 283.181C702.96 347.339 701.175 417.731 703.206 488.472" fill="url(#paint4_linear_92_30)"/>
</g>
<rect width="458" height="474" fill="url(#paint5_linear_92_30)"/>
<rect x="974" y="458" width="458" height="474" transform="rotate(-90 974 458)" fill="url(#paint6_linear_92_30)"/>
</g>
<defs>
<filter id="filter0_f_92_30" x="452.547" y="-1279.11" width="768.208" height="2017.59" filterUnits="userSpaceOnUse" color-interpolation-filters="sRGB">
<feFlood flood-opacity="0" result="BackgroundImageFix"/>
<feBlend mode="normal" in="SourceGraphic" in2="BackgroundImageFix" result="shape"/>
<feGaussianBlur stdDeviation="125" result="effect1_foregroundBlur_92_30"/>
</filter>
<radialGradient id="paint0_radial_92_30" cx="0" cy="0" r="1" gradientUnits="userSpaceOnUse" gradientTransform="translate(732.776 -167.578) rotate(90.8311) scale(833.495 1632.48)">
<stop stop-color="white" stop-opacity="0.16"/>
<stop offset="0.02" stop-color="white" stop-opacity="0.12"/>
<stop offset="1" stop-color="white" stop-opacity="0"/>
</radialGradient>
<linearGradient id="paint1_linear_92_30" x1="1113.03" y1="388.685" x2="1360.7" y2="131.295" gradientUnits="userSpaceOnUse">
<stop stop-color="#0C1018" stop-opacity="0"/>
<stop offset="0.424496" stop-color="#23DB8C"/>
<stop offset="1" stop-color="#0C1018" stop-opacity="0"/>
</linearGradient>
<linearGradient id="paint2_linear_92_30" x1="319.618" y1="375.329" x2="71.0499" y2="119.343" gradientUnits="userSpaceOnUse">
<stop stop-color="#0C1018" stop-opacity="0"/>
<stop offset="0.424496" stop-color="#23DB8C"/>
<stop offset="1" stop-color="#0C1018" stop-opacity="0"/>
</linearGradient>
<linearGradient id="paint3_linear_92_30" x1="837.444" y1="-619.32" x2="859.485" y2="116.678" gradientUnits="userSpaceOnUse">
<stop stop-color="white"/>
<stop offset="0.541667" stop-color="#23DB8C"/>
<stop offset="0.963542" stop-color="#23DB8C"/>
</linearGradient>
<linearGradient id="paint4_linear_92_30" x1="837.444" y1="-619.32" x2="859.485" y2="116.678" gradientUnits="userSpaceOnUse">
<stop stop-color="white"/>
<stop offset="0.541667" stop-color="#23DB8C"/>
<stop offset="0.963542" stop-color="#23DB8C"/>
</linearGradient>
<linearGradient id="paint5_linear_92_30" x1="72" y1="223" x2="250" y2="45" gradientUnits="userSpaceOnUse">
<stop stop-color="#0F141F"/>
<stop offset="1" stop-color="#0F141F" stop-opacity="0"/>
</linearGradient>
<linearGradient id="paint6_linear_92_30" x1="1046" y1="681" x2="1224" y2="503" gradientUnits="userSpaceOnUse">
<stop stop-color="#0F141F"/>
<stop offset="1" stop-color="#0F141F" stop-opacity="0"/>
</linearGradient>
<clipPath id="clip0_92_30">
<rect width="1440" height="900" fill="white"/>
</clipPath>
</defs>
</svg>
