<svg width="131" height="16" viewBox="0 0 131 16" fill="none" xmlns="http://www.w3.org/2000/svg">
<g clip-path="url(#clip0_1_167)">
<path d="M44.0533 7.0409L40.0484 5.98831V15.97H36.0432V3.9933V0L44.0533 1.99827L52.0607 0V15.97H48.0587V5.98831L44.0533 7.0409Z" fill="white"/>
<path d="M18.0249 0V15.97H22.0268V3.9933H30.0371V5.98831H24.031V9.96217H30.0371V15.97H34.0423V3.9933V0H18.0249Z" fill="white"/>
<path d="M88.1427 3.9933V0H76.1238C75.0617 0 74.043 0.420726 73.2918 1.16962C72.5407 1.9185 72.1189 2.93422 72.1189 3.9933V5.98835C72.1189 7.04743 72.5407 8.06314 73.2918 8.81202C74.043 9.5609 75.0617 9.98162 76.1238 9.98162H83.1339C83.2652 9.98162 83.3952 10.0074 83.5167 10.0576C83.6381 10.1077 83.7485 10.1812 83.8412 10.2738C83.9343 10.3664 84.0077 10.4764 84.0582 10.5974C84.1083 10.7184 84.1345 10.8482 84.1345 10.9792C84.1349 11.1104 84.1091 11.2405 84.059 11.3619C84.009 11.4833 83.9355 11.5936 83.8424 11.6866C83.7493 11.7796 83.6389 11.8533 83.5175 11.9037C83.3956 11.954 83.2656 11.9799 83.1339 11.9799H71.076L72.1189 15.97H84.1378C84.6633 15.97 85.1835 15.8667 85.6689 15.6662C86.1546 15.4657 86.5956 15.1718 86.9673 14.8013C87.339 14.4308 87.6336 13.9909 87.835 13.5068C88.0361 13.0227 88.1394 12.5039 88.1394 11.9799V9.98162C88.1398 9.45735 88.0369 8.93817 87.8358 8.4537C87.6348 7.96923 87.3403 7.52898 86.9686 7.15815C86.5969 6.78728 86.1554 6.49309 85.6697 6.29235C85.1839 6.09165 84.6633 5.98835 84.1378 5.98835H77.131C76.8656 5.98835 76.6112 5.88324 76.4233 5.69616C76.2358 5.50909 76.1304 5.25538 76.1304 4.99081C76.1304 4.72628 76.2358 4.47253 76.4233 4.28546C76.6112 4.0984 76.8656 3.9933 77.131 3.9933H88.1427Z" fill="white"/>
<path d="M94.1391 11.9799H90.1342V15.9732H94.1391V11.9799Z" fill="white"/>
<path d="M8.0103 3.9933H16.0207L13.9677 0H0V7.98663C0 10.1039 0.843569 12.1345 2.34519 13.6317C3.84681 15.1289 5.88345 15.97 8.00706 15.97H16.0174V5.98835H12.0122V11.9799H8.00706C6.94482 11.9799 5.92611 11.5592 5.17502 10.8103C4.42388 10.0614 4.00194 9.0457 4.00194 7.98663V3.9933H8.0103Z" fill="white"/>
<path d="M104.151 3.9933H112.161L110.108 0H96.1403V7.98663C96.1411 10.1042 96.9854 12.1348 98.4873 13.6319C99.9897 15.1289 102.027 15.97 104.151 15.97H112.161V5.98835H108.155V11.9799H104.151C103.088 11.9799 102.069 11.5592 101.319 10.8103C100.567 10.0614 100.145 9.0457 100.145 7.98663V3.9933H104.151Z" fill="white"/>
<path d="M122.143 3.9933H130.15L128.1 0H114.133V7.98663C114.133 10.1042 114.978 12.1348 116.48 13.6319C117.982 15.1289 120.019 15.97 122.143 15.97H130.15V5.98835H126.145V11.9799H122.143C121.081 11.9799 120.062 11.5592 119.311 10.8103C118.56 10.0614 118.137 9.0457 118.137 7.98663V3.9933H122.143Z" fill="white"/>
<path d="M70.0821 0H66.0771H54.0648L56.0234 3.9933H64.0759L63.55 5.98831H60.071V9.98162H63.55L64.0759 11.9799H54.0648V15.97H70.0821L68.0812 7.98658L70.0821 0Z" fill="#23DB8C"/>
</g>
<defs>
<clipPath id="clip0_1_167">
<rect width="130.174" height="16" fill="white"/>
</clipPath>
</defs>
</svg>
