<svg width="88" height="17" viewBox="0 0 88 17" fill="none" xmlns="http://www.w3.org/2000/svg">
    <path d="M36.0408 1.26626C36.6836 1.60148 37.2113 2.11964 37.5565 2.75453C37.9241 3.41185 38.1076 4.20559 38.1076 5.13578V11.1819H35.9933V5.45201C35.9933 4.53425 35.7626 3.83147 35.3011 3.34365C34.8395 2.85582 34.2096 2.61026 33.4113 2.60695C32.6129 2.60695 31.9799 2.8521 31.5127 3.34239C31.0452 3.83271 30.8113 4.53549 30.8104 5.45078V11.1806H28.6974V5.45078C28.6974 4.53301 28.4665 3.83021 28.0049 3.34239C27.5435 2.85458 26.9129 2.60943 26.1139 2.60695C25.3157 2.60695 24.6827 2.8521 24.2155 3.34239C23.748 3.83271 23.5138 4.53549 23.5131 5.45078V11.1806H21.3798V0.93016H23.5131V2.10218C23.8707 1.67152 24.326 1.33146 24.8417 1.10999C25.3839 0.873097 25.9707 0.752655 26.5631 0.756533C27.3312 0.743399 28.0904 0.922523 28.7708 1.27743C29.4119 1.61714 29.9341 2.14268 30.2677 2.7843C30.5897 2.154 31.0995 1.63776 31.7272 1.30595C32.3785 0.942401 33.1135 0.753093 33.8603 0.756533C34.6181 0.746259 35.3669 0.921301 36.0408 1.26626Z" fill="white" fill-opacity="0.48"/>
    <path d="M40.6429 3.27541C41.0469 2.5092 41.6561 1.86884 42.4031 1.42498C43.1462 0.983999 43.9974 0.755279 44.8628 0.763951C45.5983 0.747892 46.3263 0.910965 46.9835 1.23895C47.5477 1.5223 48.0426 1.92535 48.433 2.41965V0.931378H50.5848V11.1818H48.433V9.65638C48.0394 10.1662 47.5338 10.5798 46.9549 10.8656C46.2938 11.1967 45.5616 11.3627 44.8218 11.3493C43.9626 11.3569 43.1189 11.1216 42.3892 10.6709C41.6451 10.2074 41.0413 9.55155 40.6429 8.77335C40.2034 7.91873 39.9819 6.96982 39.998 6.0101C39.9797 5.05926 40.2014 4.11901 40.6429 3.27541ZM47.9964 4.20557C47.7298 3.71166 47.3319 3.29987 46.8463 3.01495C46.381 2.74439 45.851 2.60304 45.312 2.60568C44.7741 2.60302 44.2449 2.74118 43.7776 3.00627C43.2928 3.28361 42.8944 3.68933 42.6275 4.17828C42.3218 4.73996 42.1701 5.37168 42.1873 6.0101C42.1725 6.65736 42.324 7.29765 42.6275 7.87041C42.8927 8.37573 43.2941 8.79786 43.7864 9.08961C44.2477 9.36314 44.775 9.50758 45.312 9.50752C45.851 9.51019 46.381 9.3688 46.8463 9.09826C47.3336 8.81172 47.7318 8.3966 47.9964 7.89896C48.3002 7.32939 48.4517 6.69181 48.4369 6.0473C48.4526 5.40587 48.3008 4.77133 47.9964 4.20557Z" fill="white" fill-opacity="0.48"/>
    <path d="M59.5612 1.24271C60.1301 1.51899 60.6263 1.92325 61.0107 2.42341V0.935141H63.1625V11.353C63.1784 12.2301 62.9724 13.097 62.5638 13.8744C62.1678 14.6071 61.5669 15.2102 60.8337 15.6107C60.0777 16.0324 59.1762 16.2432 58.1292 16.2432C56.7322 16.2432 55.572 15.9179 54.6488 15.2672C54.2064 14.9679 53.836 14.575 53.5641 14.1165C53.2925 13.658 53.1261 13.1455 53.0772 12.6156H55.1978C55.3688 13.1607 55.739 13.6222 56.2357 13.9091C56.8087 14.2504 57.4676 14.4225 58.1355 14.4052C58.9962 14.4052 59.6918 14.1448 60.2223 13.6239C60.753 13.103 61.0176 12.3464 61.017 11.3543V9.64275C60.6241 10.1525 60.1222 10.5689 59.5475 10.8619C58.8986 11.1993 58.1751 11.3698 57.4432 11.358C56.5752 11.3667 55.7227 11.1315 54.9833 10.6796C54.2328 10.2193 53.6241 9.56289 53.2231 8.78202C52.7835 7.92747 52.562 6.97853 52.5781 6.01882C52.5598 5.06798 52.7816 4.12773 53.2231 3.28413C53.6271 2.51792 54.2363 1.87757 54.9833 1.43371C55.7266 0.99272 56.5776 0.763999 57.4432 0.772671C58.1769 0.758298 58.9034 0.919506 59.5612 1.24271ZM60.5703 4.20933C60.3036 3.71541 59.9059 3.30362 59.4204 3.01872C58.9555 2.7475 58.4261 2.60529 57.8871 2.60696C57.3492 2.6043 56.82 2.74246 56.353 3.00756C55.8676 3.28517 55.4693 3.69081 55.2015 4.17956C54.8968 4.74157 54.7454 5.37314 54.7624 6.01139C54.7478 6.65848 54.8989 7.29866 55.2015 7.87174C55.4675 8.37686 55.869 8.79887 56.3617 9.09087C56.8229 9.36447 57.3501 9.50885 57.8871 9.50885C58.4263 9.51145 58.9561 9.37013 59.4214 9.09952C59.9088 8.81298 60.3069 8.39786 60.5716 7.90022C60.8753 7.33065 61.0268 6.6931 61.012 6.04859C61.0275 5.40663 60.8753 4.77162 60.5703 4.20562V4.20933Z" fill="white" fill-opacity="0.48"/>
    <path d="M73.1624 1.26603C73.8038 1.59984 74.3287 2.1186 74.6693 2.7543C75.0307 3.41162 75.2117 4.20537 75.2117 5.13553V11.1816H73.0908V5.45179C73.0908 4.53402 72.8602 3.83122 72.3985 3.3434C71.9375 2.85559 71.3091 2.61002 70.5153 2.60671C69.7169 2.60671 69.0839 2.85187 68.615 3.34217C68.1468 3.83248 67.9137 4.53527 67.9143 5.45055V11.1804H65.781V0.92993H67.9143V2.10194C68.2738 1.66969 68.7322 1.32946 69.2513 1.10976C69.7976 0.873448 70.3876 0.753062 70.9828 0.756303C71.7402 0.745827 72.4891 0.920886 73.1624 1.26603Z" fill="white" fill-opacity="0.48"/>
    <path d="M78.0084 3.27545C78.4128 2.50959 79.021 1.86933 79.7673 1.42503C80.5109 0.984182 81.3627 0.755482 82.2288 0.763997C82.9641 0.747584 83.6921 0.910676 84.3492 1.239C84.9138 1.52199 85.4093 1.92509 85.8 2.4197V0.931424H87.949V11.1819H85.7974V9.65638C85.4041 10.1662 84.8981 10.5798 84.3192 10.8656C83.6582 11.1967 82.9263 11.3628 82.1859 11.3493C81.3269 11.3569 80.4836 11.1217 79.7536 10.6709C79.0093 10.2075 78.4056 9.55155 78.0071 8.77335C77.5675 7.91899 77.3454 6.96992 77.3624 6.01014C77.3435 5.05915 77.5662 4.11875 78.0084 3.27545ZM85.3618 4.20562C85.0954 3.7117 84.6976 3.2999 84.2118 3.01501C83.7468 2.74443 83.2167 2.60309 82.6775 2.60573C82.1396 2.6029 81.6108 2.74106 81.1433 3.00632C80.6581 3.28395 80.2596 3.68957 79.9919 4.17832C79.6872 4.74035 79.5361 5.3719 79.553 6.01014C79.538 6.65723 79.6891 7.29739 79.9919 7.87047C80.2583 8.3756 80.6594 8.7976 81.1517 9.08961C81.6134 9.36321 82.1403 9.50765 82.6775 9.50758C83.2167 9.51025 83.7468 9.36887 84.2118 9.09832C84.6995 8.81172 85.0974 8.39667 85.3618 7.89903C85.6659 7.32939 85.8176 6.69185 85.8026 6.04734C85.8183 5.40593 85.6665 4.77137 85.3618 4.20562Z" fill="white" fill-opacity="0.48"/>
    <path d="M0.0507812 1.48791C0.0507812 0.978543 0.566963 0.631561 1.03863 0.823867L7.83311 3.59407C8.00637 3.66471 8.20037 3.66484 8.37372 3.59442L15.1988 0.82203C15.6703 0.630483 16.1858 0.977451 16.1858 1.48642V10.4607C16.1858 10.8567 15.8647 11.1778 15.4687 11.1778H0.767893C0.371843 11.1778 0.0507812 10.8567 0.0507812 10.4607V1.48791Z" fill="white" fill-opacity="0.48"/>
</svg>
